<svg id="Layer_1" data-name="Layer 1" xmlns="http://www.w3.org/2000/svg" viewBox="0 0 449.21 265.79"><defs><style>.cls-1{fill:#cd96b0;}.cls-2{fill:#fff;}.cls-3{fill:#e6cbd7;}.cls-4{fill:#ecd8e1;}.cls-5{fill:#e9d1dc;}.cls-6{fill:#ce97b1;}.cls-7{fill:#cd97b1;}.cls-8{fill:#ce98b1;}.cls-9{fill:#e1c0cf;}.cls-10{fill:#d7abc0;}.cls-11{fill:#dab1c5;}</style></defs><title>roses svg logo</title><path class="cls-1" d="M215.49,11.7c.32.35.78.24,1.16.33a27.9,27.9,0,0,1,7.26,3.26c2.85,1.67,5.54,3.58,8.33,5.35a51.12,51.12,0,0,0,13.27,6.29,54.41,54.41,0,0,0,7.9,1.68c2.45.33,4.88.73,7.33,1s4.69.51,7,.75c2.13.22,4.25.42,6.37.62,1.05.1,2.09.13,3.14.23,2.53.24,5.09.29,7.62.53,3.09.3,6.21.33,9.28.87a13.86,13.86,0,0,1,1.42.32,6.49,6.49,0,0,1,4.82,5.12c.93,3.78,1.85,7.56,2.89,11.32a182.27,182.27,0,0,0,7.48,21.78A108.47,108.47,0,0,0,322.26,92a29.43,29.43,0,0,1,3.58,6.35,27.39,27.39,0,0,1,1.87,9.76,39,39,0,0,1-.68,7.93,13,13,0,0,1-5.64,8.36,38.17,38.17,0,0,1-8.21,4.16,121.24,121.24,0,0,1-17.13,5c-4.38,1-8.77,2-13.14,3a8.7,8.7,0,0,1-4.33.11c-.21-.06-.43-.12-.64-.2a.52.52,0,0,1-.27-.89,7.26,7.26,0,0,1,1.52-1.79c1.3-.95,2.56-2,3.9-2.86a9.16,9.16,0,0,0,3.6-5,102.38,102.38,0,0,0,3.15-11.82c.51-2.45,1-4.92,1.27-7.41a51.92,51.92,0,0,0,.14-10.43c-.47-5.36-2.63-10.11-5.1-14.77a72.16,72.16,0,0,0-6.21-9.63c-2-2.61-4.05-5.11-6.23-7.54s-4.63-5.12-7.12-7.52a49.05,49.05,0,0,0-10.75-7.89,75.8,75.8,0,0,0-13.12-5.6,82.63,82.63,0,0,0-12.9-3,9,9,0,0,1-1.78-.19c-.89-.31-1.2-.75-1-1.58s.66-1,1.54-.93a113.72,113.72,0,0,1,23.92,5,99.21,99.21,0,0,1,15.43,6.19,37.47,37.47,0,0,1,10.23,7.62,49.6,49.6,0,0,1,6.7,9c2,3.31,3.86,6.69,5.56,10.16a69.61,69.61,0,0,1,5.31,16c.58,2.63,1.05,5.28,1.59,7.92a10.23,10.23,0,0,0,1.8,3.85c.56.79,1.19.8,1.86.1a2.15,2.15,0,0,0,.47-.88,24.46,24.46,0,0,0,1.53-8.92,20.16,20.16,0,0,0-.63-3.87c-.84-3.53-1.71-7.06-2.56-10.59a87.48,87.48,0,0,1-2.06-11.82,49.7,49.7,0,0,0-3.29-13c-1.23-3.19-2.63-6.3-4.05-9.4a6.22,6.22,0,0,0-3-3.08A45.2,45.2,0,0,0,276,38.06c-6-1.24-12.14-2.2-18.16-3.61q-12-2.79-23.76-6.36c-4.59-1.4-9.17-2.84-13.71-4.38A13.74,13.74,0,0,0,217.4,23a5.17,5.17,0,0,0-5.59,3.09,15.69,15.69,0,0,0-1.3,4.86A18.76,18.76,0,0,0,213,42.74l.36.7a1.26,1.26,0,0,1,0,1.57,1.57,1.57,0,0,1-1.7.57,9.77,9.77,0,0,1-2.78-1.19,9.5,9.5,0,0,1-4.39-6.76,40,40,0,0,1-.67-10.07,30.31,30.31,0,0,1,1.35-8.62,10.37,10.37,0,0,1,7.8-7.06c.1,0,.19-.12.28-.18Z" transform="translate(-5.08 -11.7)"/><path class="cls-1" d="M431.07,277.29a20.23,20.23,0,0,1-13.53-6.07,21.29,21.29,0,0,1-5.37-10.71,35.36,35.36,0,0,1-.65-9.84c.4-6,2.43-11.31,6.85-15.56A20.15,20.15,0,0,1,428.2,230a24.4,24.4,0,0,1,5.69-.59c3.94.05,7.87.47,11.39,2.51a16.51,16.51,0,0,1,8.48,11.46c.18.91.1,1-.9,1h-4.5c-1,0-1,0-1.24-.91a12,12,0,0,0-2.88-5,10.54,10.54,0,0,0-5.49-3.11,19,19,0,0,0-9.68.17,13.93,13.93,0,0,0-9.68,9.94,29.11,29.11,0,0,0-1.1,10.12,20.09,20.09,0,0,0,3.46,10.76,12.71,12.71,0,0,0,8.45,5.27,18,18,0,0,0,7.69-.14,12,12,0,0,0,7.84-6.1,19,19,0,0,0,1.94-5.14.83.83,0,0,1,1-.76c1.88,0,3.75,0,5.63,0v.68a15.68,15.68,0,0,1-2.78,8.27c-3.94,5.93-9.45,9-16.62,8.95A34.74,34.74,0,0,1,431.07,277.29Z" transform="translate(-5.08 -11.7)"/><path class="cls-2" d="M435.16,277.29A20,20,0,0,0,447.1,273a18.67,18.67,0,0,0,7-12.31.6.6,0,0,1,.21-.49v17.34H435.14c-.08-.05-.1-.1-.07-.14A.12.12,0,0,1,435.16,277.29Z" transform="translate(-5.08 -11.7)"/><path class="cls-3" d="M5.32,274.54l-.24,0V231.09l.25,0a2,2,0,0,1,.33,1.5q0,20.2,0,40.42A2,2,0,0,1,5.32,274.54Z" transform="translate(-5.08 -11.7)"/><path class="cls-4" d="M270,277.29c0,.07,0,.13,0,.2H265.5a1.48,1.48,0,0,0,0-.21A5.93,5.93,0,0,1,270,277.29Z" transform="translate(-5.08 -11.7)"/><path class="cls-5" d="M435.16,277.29a1.36,1.36,0,0,0,0,.2h-4.05a1.23,1.23,0,0,0,0-.2Z" transform="translate(-5.08 -11.7)"/><path class="cls-1" d="M238.94,133.76c-.12,1-.12,2-.19,3a36.68,36.68,0,0,1-2.39,10.36,41.67,41.67,0,0,1-6.48,11.66,17.92,17.92,0,0,1-9.71,6.55,21.66,21.66,0,0,1-11-.6,4.22,4.22,0,0,1-.83-.33,1.11,1.11,0,0,1,0-2.05c.55-.31,1.16-.54,1.74-.8,2.65-1.24,5.29-2.5,7.95-3.71a13.14,13.14,0,0,0,7.33-8.77,42,42,0,0,0,1.41-8.63c.18-2.42.41-4.85.62-7.27,0-.11,0-.22,0-.34.08-2.47.14-4.94.27-7.41.15-3,.26-6,.6-9a31.69,31.69,0,0,0-1.91-14.78c-.71-1.9-1.33-3.82-2-5.75a5.25,5.25,0,0,1-.13-3,2.78,2.78,0,0,1,2.23-2.25,12.31,12.31,0,0,1,6.32.07,9.67,9.67,0,0,1,4.27,2.83,15,15,0,0,1,3.93,7.46,7.62,7.62,0,0,1,.14,1.34,52.14,52.14,0,0,1-.19,7.07c-.18,1.18.41,1.64,1.42,1.13a32.94,32.94,0,0,0,8.83-5.94A9.63,9.63,0,0,0,254,98.55a28.21,28.21,0,0,0-3.78-16.16c-2.47-4.5-6.43-6.61-11.38-7.2a26.34,26.34,0,0,0-20.35,5.93,86.1,86.1,0,0,0-8.08,7.67c-3.28,3.49-6.46,7.09-9.43,10.86-.54.68-1.1,1.33-1.66,2-.35.41-.73.81-1.34.53s-.56-.73-.56-1.24A7.82,7.82,0,0,1,199.34,96c2.52-3.21,5.06-6.41,7.75-9.49a99,99,0,0,1,13.21-13,40.83,40.83,0,0,1,13.46-6.85,48.93,48.93,0,0,1,8.35-1.72,28.5,28.5,0,0,1,13.52,1.26,24.44,24.44,0,0,1,6.8,3.9,13.37,13.37,0,0,1,3.71,5.57,27.31,27.31,0,0,1,2.21,7.87,20,20,0,0,1-.47,7.58,37,37,0,0,1-1.68,5.36,11.78,11.78,0,0,1-.95,1.79c-1.32,1.95-2.29,4.12-3.8,6a25.94,25.94,0,0,1-6.6,5.71,36.09,36.09,0,0,1-5.12,2.58,3.56,3.56,0,0,0-1.08.59,1.55,1.55,0,0,1-.79.41c-1.59.19-3,1.08-4.49,1.42-1.17.26-1.54,1.08-1.16,2.25.71,2.17,1.63,4.27,2.55,6.36q2,4.64,4.31,9.16a45.4,45.4,0,0,0,7.31,10.35,109.15,109.15,0,0,0,13.29,11.76,54,54,0,0,0,9.15,5.91,2.19,2.19,0,0,1,1.31,3,7.48,7.48,0,0,1-3.85,4.77,18,18,0,0,1-10.68,2.48,16.38,16.38,0,0,1-6.68-2.2,29.83,29.83,0,0,1-8.3-7.49A61.5,61.5,0,0,1,244.09,151a43.81,43.81,0,0,1-3.6-10.27c-.51-2.18-1-4.38-1.34-6.6C239.12,134,239.14,133.86,238.94,133.76Z" transform="translate(-5.08 -11.7)"/><path class="cls-1" d="M191.18,199.75a81.51,81.51,0,0,1-9.4-.23,69.65,69.65,0,0,1-18.68-3.64,85.12,85.12,0,0,1-16.76-8.15,94.11,94.11,0,0,1-13.48-10.47,50.11,50.11,0,0,1-6.71-7.26,23.09,23.09,0,0,1-4.43-11.84,43.24,43.24,0,0,1,.45-9.17c.35-2.75.64-5.5,1-8.25.25-2.08.55-4.15.8-6.23.27-2.34.51-4.69.76-7,.29-2.64.6-5.28.85-7.92A72.19,72.19,0,0,1,127,111a33.29,33.29,0,0,1,2.54-7.66,14.35,14.35,0,0,1,5.9-6.75,11.45,11.45,0,0,1,4.71-1.34,17.58,17.58,0,0,1,6.32.82c2.91.88,5.8,1.81,8.74,2.55a7.58,7.58,0,0,1,2.84,1.73,4.13,4.13,0,0,1,1.14,3.2,66.5,66.5,0,0,1-.34,9.77c-.33,2.93-.74,5.86-1,8.8-.48,4.93-.61,9.87-.67,14.82a40.55,40.55,0,0,0,1.72,11.85c1.14,3.92,2.44,7.8,4,11.59a55.47,55.47,0,0,0,5.15,10.24,21.41,21.41,0,0,0,9.47,7.87,28.91,28.91,0,0,1,6.81,4.33c.29.23.48.48.3.86a.84.84,0,0,1-1,.52c-.77-.15-1.53-.34-2.3-.5a30.77,30.77,0,0,1-13.5-6.59,44,44,0,0,1-10.91-13.6,117.54,117.54,0,0,1-10.16-27.21,68.38,68.38,0,0,1-1.8-9.82,26.25,26.25,0,0,1-.16-6.39,14.06,14.06,0,0,0,.06-3.37,8.07,8.07,0,0,0-2.06-4.41,2,2,0,0,0-2.39-.43,6.13,6.13,0,0,0-3.15,3.07,24.33,24.33,0,0,0-1.58,4.68c-.93,3.24-1.76,6.51-2.38,9.82-.45,2.39-.83,4.79-1.1,7.21A51.94,51.94,0,0,0,132,146,41,41,0,0,0,135,158.74a46.67,46.67,0,0,0,7.88,12.78,58.49,58.49,0,0,0,18.52,14.41,45.6,45.6,0,0,0,11.76,3.7c2.94.55,5.91.92,8.89,1.19,2.8.26,5.6.38,8.42.45a75.43,75.43,0,0,1,11.63.88,13.85,13.85,0,0,1,5.69,2,3.32,3.32,0,0,1,1.52,3.69,1.67,1.67,0,0,1-1.82,1.5c-2.33,0-4.64.24-7,.25C197.41,199.58,194.27,199.89,191.18,199.75Z" transform="translate(-5.08 -11.7)"/><path class="cls-1" d="M276.9,180.17a1.43,1.43,0,0,1-.57,1.23,31.83,31.83,0,0,0-2.86,3.18c-.05,0-.08.13-.13.18-2.53,2.34-4.49,5.21-7.2,7.38a16.66,16.66,0,0,0-4,4.28,5.22,5.22,0,0,0-.55,1.11,1.55,1.55,0,0,0,1.09,2.29,6.1,6.1,0,0,0,2.08.4,55.68,55.68,0,0,0,7.53-.22,6.88,6.88,0,0,0,4.51-2.31c2.75-3.17,5.43-6.41,8.1-9.64,2.42-2.92,4.9-5.78,7.47-8.56a64.53,64.53,0,0,1,10-8.53,15.8,15.8,0,0,0,5.12-5.59,13,13,0,0,0,1.1-4.21,16,16,0,0,0-.19-4.69,10.61,10.61,0,0,0-2.8-5.42c-1.19-1.35-2.57-2.52-3.71-3.92a10.59,10.59,0,0,1-2.42-6.85c0-1.05.48-1.5,1.51-1.55a8.6,8.6,0,0,1,2.76.42,21.4,21.4,0,0,1,12.94,10,13.34,13.34,0,0,1,1.3,11.46,14.8,14.8,0,0,1-3.58,5.4c-1.46,1.51-3,3-4.58,4.33a62.23,62.23,0,0,0-5.25,5.4,60.72,60.72,0,0,0-6.13,8c-1,1.55-1.79,3.21-2.68,4.81a75.68,75.68,0,0,1-9,13,38.42,38.42,0,0,1-8.54,7.6,18.27,18.27,0,0,1-7.28,2.51,83.36,83.36,0,0,1-13.59.35c-2.54-.06-5.09-.09-7.63-.37A47.09,47.09,0,0,1,237.29,209c-3.4-1.36-6.45-3.22-8.48-6.4a13.54,13.54,0,0,1-1-1.88c-.45-1.06-.15-1.61.95-1.92a10.4,10.4,0,0,1,4-.08,33.63,33.63,0,0,0,6.73,0,37.64,37.64,0,0,0,6.07-1.08,55.26,55.26,0,0,0,9.39-3.43,87.84,87.84,0,0,0,15-8.64,36,36,0,0,0,5-4.13A4.72,4.72,0,0,1,276.9,180.17Z" transform="translate(-5.08 -11.7)"/><path class="cls-1" d="M162.08,70.17a37.31,37.31,0,0,1,3.84-16.37,10.73,10.73,0,0,1,2.19-3c1-.9,1.91-1.81,2.8-2.78a4.43,4.43,0,0,0,1.37-2.75c.14-2.29-1.53-3-3.24-2.87a13.55,13.55,0,0,0-4.29,1.29,29.69,29.69,0,0,0-12.67,11,16.2,16.2,0,0,0-2.66,7.78A16.91,16.91,0,0,0,151,70.85a32.54,32.54,0,0,0,5.39,8c2.38,2.7,4.87,5.31,7.27,8a43.9,43.9,0,0,1,4.06,5.24,5.44,5.44,0,0,1,.94,3.07c0,.6,0,1.2,0,1.8-.06,1.27-.89,1.83-2.07,1.32a33.53,33.53,0,0,1-3.11-1.57,50.16,50.16,0,0,1-10.29-7.6,46.35,46.35,0,0,1-8-10.12,52.64,52.64,0,0,1-5.92-15,28.5,28.5,0,0,1-.77-7.92,16,16,0,0,1,1.43-6.19,9.9,9.9,0,0,1,4.47-4.3,46.07,46.07,0,0,1,4.35-1.84c3.4-1.38,6.82-2.72,10.21-4.15,4.14-1.75,8.34-3.36,12.51-5,4.87-2,9.73-3.94,14.58-6a3.14,3.14,0,0,1,4.05.83,2,2,0,0,1,.52,2.16A8.55,8.55,0,0,1,189,34.39a35.15,35.15,0,0,1-4.74,4.94c-2.42,2.14-4.89,4.21-7.34,6.3l-2.56,2.2a9,9,0,0,0-1.74,2.05,33.64,33.64,0,0,0-4.43,10.88A44.8,44.8,0,0,0,167,69.54a29.06,29.06,0,0,0-.15,3.36c.13,1.68.14,3.37.35,5a6.51,6.51,0,0,1-.29,3.44,4.52,4.52,0,0,1-.34.7c-.24.36-.51.38-.83.06A9.78,9.78,0,0,1,164,79.56a18.36,18.36,0,0,1-1.67-5.91C162.16,72.49,162.1,71.33,162.08,70.17Z" transform="translate(-5.08 -11.7)"/><path class="cls-1" d="M194.61,149a2.84,2.84,0,0,0,0,1.53,44.93,44.93,0,0,0,1.76,5.21,35.53,35.53,0,0,1,1.49,6.67,22.45,22.45,0,0,1,.22,5,17.09,17.09,0,0,1-2.33,8.24,10.62,10.62,0,0,1-7.54,5,5.56,5.56,0,0,1-3,0,5.12,5.12,0,0,1-1.48-.78,1.84,1.84,0,0,1-.5-2.5,58.57,58.57,0,0,0,5.78-16.48,26.83,26.83,0,0,0,.37-6.14,75.45,75.45,0,0,0-1.39-11c-.33-1.94-1.2-2.11-2.77-1.73a22.57,22.57,0,0,1-6,.73,20.73,20.73,0,0,1-12.32-4,14,14,0,0,1-5.77-10.61A13.05,13.05,0,0,1,162,122a11.91,11.91,0,0,1,5.61-5.77,25.76,25.76,0,0,1,7.78-2.5,49.88,49.88,0,0,1,11.45-.41,47.73,47.73,0,0,1,10.58,1.93,48.57,48.57,0,0,1,6.43,2.38,5,5,0,0,1,1.48,1.19.73.73,0,0,1-.78,1.2c-.36-.1-.68-.3-1-.42a92.77,92.77,0,0,0-15-3.78,15.93,15.93,0,0,0-11.33,2.35,11.22,11.22,0,0,0-4.86,7,12.55,12.55,0,0,0,3.14,11.87,5.54,5.54,0,0,0,2.34,1.51,16.86,16.86,0,0,0,6.76.8,2,2,0,0,0,.55-.09c.86-.26,1-.64.43-1.36a19.48,19.48,0,0,1-2.67-4.29,7.53,7.53,0,0,1,1.63-8.69,7.31,7.31,0,0,1,2.29-1.41,2,2,0,0,1,2.48.75,3.49,3.49,0,0,1,.74,1.73,20.68,20.68,0,0,0,1.73,6,39.32,39.32,0,0,0,5.91,9c2,2.33,3.89,4.67,5.89,6.95a33.62,33.62,0,0,0,5.41,4.91c1.13.83,1.24,1.59.21,2.54a3.06,3.06,0,0,1-3,.87,17.94,17.94,0,0,1-7.53-3.87c-1.1-1-2.09-2-3.18-3C195.25,149.25,195.06,148.93,194.61,149Z" transform="translate(-5.08 -11.7)"/><path class="cls-1" d="M216.82,49.32A29,29,0,0,1,227,50.78a18.76,18.76,0,0,1,8.8,6.55,4.6,4.6,0,0,1,.79,1.48,2,2,0,0,1-1.05,2.57,10.43,10.43,0,0,1-4.18,1.2,66.72,66.72,0,0,1-7.74.47,17.88,17.88,0,0,0-4.43.63,41.81,41.81,0,0,0-16.82,8.74,34.56,34.56,0,0,0-8.78,11.27A38.26,38.26,0,0,0,190.49,94c-.4,2.44-.42,4.92-.7,7.37a25.83,25.83,0,0,1-1.1,5.72,5.13,5.13,0,0,1-.71,1.4,1.27,1.27,0,0,1-1.38.53c-.57-.12-.74-.58-.85-1.07a32.26,32.26,0,0,1-.4-3.79,99.48,99.48,0,0,1-.5-12.92,42.27,42.27,0,0,1,4-17.14,70.27,70.27,0,0,1,7.94-13.29,50.65,50.65,0,0,1,6.59-7.22,16.84,16.84,0,0,1,8.26-3.81A23.94,23.94,0,0,1,216.82,49.32Z" transform="translate(-5.08 -11.7)"/><path class="cls-1" d="M380.18,265.75V232.47c0-1.52-.11-1.39,1.4-1.39,1.17,0,2.33,0,3.49,0,.82,0,.87.09.91.92,0,.19,0,.38,0,.57v40.64c0,1.52.08,1.37-1.42,1.37-2,0-4,0-6,0a1.28,1.28,0,0,1-1.25-.71c-4-6.38-8.06-12.74-12.08-19.11l-8.57-13.6c-.28-.45-.58-.87-1-1.43a3.2,3.2,0,0,0-.11,1.27q0,16.1,0,32.19c0,1.52.1,1.38-1.42,1.38h-3.38c-.82,0-.82,0-.85-.8,0-.19,0-.38,0-.57V232.46c0-1.51-.1-1.38,1.41-1.38,2,0,4,0,6,0a1.51,1.51,0,0,1,1.54.81q7.69,12.48,15.48,24.93c1.86,3,3.74,6,5.61,9Z" transform="translate(-5.08 -11.7)"/><path class="cls-1" d="M145.44,253.84V232.55c0-.26,0-.52,0-.78,0-.46.14-.72.64-.69h32.1c.19,0,.38,0,.56,0,.78,0,.86.08.88.84,0,1.31,0,2.63,0,3.94,0,.76-.11.83-.84.87-.27,0-.53,0-.79,0H153.88c-.77,0-.79,0-.8.86,0,1,0,2,0,3v8.11c0,1.36-.05,1.26,1.31,1.26h21.85c1.52,0,1.41-.13,1.41,1.38,0,1.2,0,2.4,0,3.6,0,.46-.16.71-.65.68H154c-.93,0-.95,0-.95.94,0,2.25,0,4.51,0,6.76,0,2.1,0,4.2,0,6.31,0,1.08,0,1.09,1.13,1.09h21.06c1.17,0,2.33,0,3.5,0,.75,0,.84.1.85.85,0,1.35,0,2.71,0,4.06,0,.77-.1.83-.83.87-.23,0-.45,0-.68,0H146.8c-1.47,0-1.36.1-1.36-1.32Z" transform="translate(-5.08 -11.7)"/><path class="cls-1" d="M5.32,274.54q0-21.71,0-43.42c.33,0,.67,0,1,0h21a20.36,20.36,0,0,1,7.37,1.28,9.72,9.72,0,0,1,6,5.61,11.81,11.81,0,0,1,.8,5.94c-.08.52-.08,1.05-.17,1.57a10.06,10.06,0,0,1-4.71,6.83l-1.27.81a2.22,2.22,0,0,0,1.05.68,7.2,7.2,0,0,1,4.17,6.45c.15,2,.08,4,.24,5.95a27.63,27.63,0,0,0,.38,4.25,4.52,4.52,0,0,0,1.72,2.93.74.74,0,0,1,.33.87c-.09.42-.45.33-.73.33-3,0-6.09,0-9.13,0a.88.88,0,0,1-1-.81,11.12,11.12,0,0,1-.36-2.55c0-2.06-.26-4.11-.29-6.17a23.17,23.17,0,0,0-.45-4.92,5.2,5.2,0,0,0-4.65-4.24,21.92,21.92,0,0,0-3.25-.25c-3.6,0-7.2,0-10.81,0-.22,0-.45,0-.67,0-.56,0-.74.24-.71.75,0,.26,0,.53,0,.79v15.88c0,.26,0,.52,0,.78,0,.54-.21.74-.73.73C8.7,274.56,7,274.55,5.32,274.54Z" transform="translate(-5.08 -11.7)"/><path class="cls-1" d="M102.68,261.29c.71,0,1.43,0,2.14,0s.88.05.94.89a11.52,11.52,0,0,0,.89,3.7,8.67,8.67,0,0,0,5.49,5,19.08,19.08,0,0,0,14.64-.86,6.05,6.05,0,0,0,3.44-4.47,7.53,7.53,0,0,0-.26-3.88,5.56,5.56,0,0,0-3.3-3.32,41.28,41.28,0,0,0-7.76-2.26,90.71,90.71,0,0,1-10.13-2.49,15.78,15.78,0,0,1-3.45-1.63,8.47,8.47,0,0,1-4-6,13,13,0,0,1,1-7.79,13.28,13.28,0,0,1,9.2-7.29,26,26,0,0,1,10.93-.32,19.61,19.61,0,0,1,7.51,2.85,11,11,0,0,1,5.09,8.34,13.31,13.31,0,0,1,.21,1.9c0,.45-.13.71-.64.7-1.61,0-3.22,0-4.84,0-.51,0-.64-.29-.73-.68-.16-.69-.28-1.39-.49-2.07a7.82,7.82,0,0,0-5.52-5.45,17.55,17.55,0,0,0-11,.09,7.11,7.11,0,0,0-4.68,6.3,5.28,5.28,0,0,0,3.72,5.41,47.85,47.85,0,0,0,5.62,1.58c3.36.76,6.73,1.49,10.08,2.28a16.48,16.48,0,0,1,4.58,1.82,10.16,10.16,0,0,1,5.31,8.94,15.57,15.57,0,0,1-.54,4.9,10.55,10.55,0,0,1-5.75,6.7,25.34,25.34,0,0,1-9.57,2.66,28.71,28.71,0,0,1-3.7.16,24.23,24.23,0,0,1-8.65-1.75,13.94,13.94,0,0,1-8.7-10.93c-.12-.74-.06-1.49-.19-2.24-.11-.59.1-.77.76-.79S101.89,261.29,102.68,261.29Z" transform="translate(-5.08 -11.7)"/><path class="cls-1" d="M218.54,244.36h-2.13c-.89,0-.92,0-1.1-.91-.1-.48-.17-1-.3-1.43a7.94,7.94,0,0,0-5.25-5.72,17.85,17.85,0,0,0-8.21-.78,15.82,15.82,0,0,0-3.27.74,7.14,7.14,0,0,0-4.65,6.77,5,5,0,0,0,3.23,4.72,37.27,37.27,0,0,0,6.14,1.8c3.31.77,6.65,1.47,10,2.27a16.32,16.32,0,0,1,4.79,1.88,10.25,10.25,0,0,1,5.19,9.25,17.09,17.09,0,0,1-.38,3.9,10.51,10.51,0,0,1-5.73,7.25,26.73,26.73,0,0,1-9.88,2.77,28.19,28.19,0,0,1-9.69-.74,15,15,0,0,1-9.21-6.38,13.31,13.31,0,0,1-2.09-6.56c0-.23,0-.45,0-.68-.12-1.21-.13-1.21,1.14-1.22h3.71c1.17,0,1.15,0,1.29,1.14a9.93,9.93,0,0,0,3.25,6.71,11.2,11.2,0,0,0,5.49,2.41,20.59,20.59,0,0,0,10.75-.83,7.06,7.06,0,0,0,4.5-3.8,6.94,6.94,0,0,0-.42-6.47,5.58,5.58,0,0,0-2.71-2.1,44.61,44.61,0,0,0-8.85-2.49,69.43,69.43,0,0,1-9.56-2.45,13.38,13.38,0,0,1-3.82-2.12,8.19,8.19,0,0,1-3.06-5.34,13.34,13.34,0,0,1,1-7.7,13.11,13.11,0,0,1,7.88-6.94,21.87,21.87,0,0,1,7-1.14,24.43,24.43,0,0,1,9.58,1.57,14.94,14.94,0,0,1,5.13,3.18,11.17,11.17,0,0,1,3.22,6.77,12.11,12.11,0,0,1,.21,2c0,.48-.18.68-.66.67C220.12,244.34,219.33,244.36,218.54,244.36Z" transform="translate(-5.08 -11.7)"/><path class="cls-1" d="M270,277.29h-4.53a20.3,20.3,0,0,1-13.3-6.06,20.6,20.6,0,0,1-5.14-9.73,35.65,35.65,0,0,1-.89-10.6,23.72,23.72,0,0,1,4-12.46,20.07,20.07,0,0,1,14.33-8.74,25.82,25.82,0,0,1,3.8-.3c5,0,9.9.73,14,4a16.26,16.26,0,0,1,6.13,9.93c.15.88.08,1-.8,1-1.58,0-3.16,0-4.73,0-.67,0-.88-.26-1.06-.85a12.16,12.16,0,0,0-2.79-4.94,10.54,10.54,0,0,0-5.76-3.29,18.83,18.83,0,0,0-10.31.45,13.65,13.65,0,0,0-8.14,7.61,23.32,23.32,0,0,0-1.75,7.5,27.48,27.48,0,0,0-.15,4.15,22,22,0,0,0,2.36,9.51,13,13,0,0,0,10,7.13,18.63,18.63,0,0,0,7.25-.21,11.93,11.93,0,0,0,7.77-6,18.73,18.73,0,0,0,2-5.12c.13-.6.34-.89,1-.87,1.62.06,3.23,0,4.84,0,.75,0,.86.15.73.88-1.37,7.56-5.45,12.94-12.72,15.72A20.75,20.75,0,0,1,270,277.29Z" transform="translate(-5.08 -11.7)"/><path class="cls-1" d="M218.92,189.24c1.24-.8,2.61-1.2,3.87-1.86,2.86-1.49,6-2,9.07-2.9a19.42,19.42,0,0,0,9.26-5.71A26,26,0,0,0,243,176.1a10.31,10.31,0,0,1,1.57-1.91,4,4,0,0,1,3.5-1.08,51.57,51.57,0,0,1,11.26,3.43,77,77,0,0,0,7.52,2.64c1,.28,1,.34.64,1.32a10.56,10.56,0,0,1-3.47,4.35,24.84,24.84,0,0,1-6.69,3.64,65.12,65.12,0,0,1-13.78,3.57,41.77,41.77,0,0,1-9.87.13c-1.79-.14-3.58-.31-5.36-.52a31.54,31.54,0,0,1-8.84-2A1,1,0,0,1,218.92,189.24Z" transform="translate(-5.08 -11.7)"/><path class="cls-1" d="M295,254.74V234.47c0-.19,0-.38,0-.57,0-1,0-1,1-1,2,0,3.9,0,5.85,0,.59,0,.83.21.78.79a6.94,6.94,0,0,0,0,.79v34.91c0,1.5-.09,1.37,1.42,1.37h19.71c.26,0,.53,0,.79,0,.55,0,.84.19.83.78,0,1.43,0,2.86,0,4.28,0,.53-.25.76-.76.74H296.37c-1.45,0-1.35.1-1.35-1.33Q295,265,295,254.74Z" transform="translate(-5.08 -11.7)"/><path class="cls-1" d="M214.72,143.5c-3.35.06-6-1.33-8.53-3.09-3.64-2.5-3.53-7.71-1.52-10.45a8.25,8.25,0,0,1,1.5-1.51,1,1,0,0,1,1.05-.24c.43.19.4.59.4,1a29.43,29.43,0,0,0,.45,5.7,7.16,7.16,0,0,0,1.44,3.26,3.86,3.86,0,0,0,2.56,1.48,9,9,0,0,0,9.77-5.58,15.16,15.16,0,0,0,1.1-5.13,9.69,9.69,0,0,0-2.55-6.78c-.37-.43-.77-.82-1.18-1.22a2.66,2.66,0,0,0-3.38-.58,43.21,43.21,0,0,0-4.64,2.75c-.48.29-1,.57-1.46.85a.73.73,0,0,1-.93-.1.78.78,0,0,1-.25-.91,5,5,0,0,1,1.39-2.4c.79-.56,1-1.33-.13-2.21a5.14,5.14,0,0,0-1.68-.89c-4.48-1.34-5.12-6.49-3-9.69,1.61-2.41,3.72-2.64,5.84-.68a6,6,0,0,1,1.76,3.79,7.21,7.21,0,0,0,.92,2.4,1,1,0,0,0,.92.53,2.61,2.61,0,0,0,2.55-1.51,6.76,6.76,0,0,0,.52-5.23c-.29-1.13-.79-2.19-1.17-3.28-.47-1.34-1.6-1.71-3-1.65a3.84,3.84,0,0,0-2.31.77,2,2,0,0,1-1.62.27A.73.73,0,0,1,209,102c1.34-1.67,2.7-3.31,5-3.85a4,4,0,0,1,2.73.38c3.6,1.72,6.1,4.88,6,9.25a8.35,8.35,0,0,1-.59,2.73c-.52,1.32-1,2.65-1.57,4a8.77,8.77,0,0,1-1.46,2.39c-.58.67-.56.86.23,1.25a12.32,12.32,0,0,1,4.45,3.72,11.73,11.73,0,0,1,2.3,5.9,15.92,15.92,0,0,1-2.68,11,10.42,10.42,0,0,1-6.66,4.62A19.15,19.15,0,0,1,214.72,143.5Z" transform="translate(-5.08 -11.7)"/><path class="cls-1" d="M172.23,87.62a84.55,84.55,0,0,1,.86-11,85.79,85.79,0,0,1,2.53-13.21,38.92,38.92,0,0,1,2.28-6.45A13.71,13.71,0,0,1,187,49.5a38.39,38.39,0,0,1,4.63-.83c.22,0,.45,0,.68,0a1.64,1.64,0,0,1,1.7.85,1.66,1.66,0,0,1-.27,1.88l-4.7,6.45q-4,5.51-7.56,11.31a39.53,39.53,0,0,0-2.27,5.26,67.21,67.21,0,0,0-2.8,7.93,20.75,20.75,0,0,0-.84,5.73,17.64,17.64,0,0,0,.59,3.76c.63,3,1.38,6,2.2,8.94a4.73,4.73,0,0,1,.14,1.67,1.42,1.42,0,0,1-1.1,1.39,1.36,1.36,0,0,1-1.56-.82,27.27,27.27,0,0,1-3.16-9.19A32.11,32.11,0,0,1,172.23,87.62Z" transform="translate(-5.08 -11.7)"/><path class="cls-1" d="M276.77,100.25a70.35,70.35,0,0,0-.85-9.27c-.24-1.44-.41-2.89-.64-4.33a1.17,1.17,0,0,1,.51-1.26,1.1,1.1,0,0,1,1.37,0,3.7,3.7,0,0,1,.46.31,38.33,38.33,0,0,1,7,8,9.45,9.45,0,0,1,.87,7.13,38.71,38.71,0,0,1-7.39,15.73,44.75,44.75,0,0,1-11.25,10.58,50.93,50.93,0,0,1-9.41,4.53,2.15,2.15,0,0,1-.44.09c-.69.15-1.15,0-1.34-.45a1,1,0,0,1,.5-1.35,23.86,23.86,0,0,0,3.06-2.08c3-2.36,6.1-4.49,9.15-6.73a18.09,18.09,0,0,0,6.13-8.17,32.22,32.22,0,0,0,2.1-9.39C276.67,102.5,276.76,101.38,276.77,100.25Z" transform="translate(-5.08 -11.7)"/><path class="cls-1" d="M242.76,162a12.79,12.79,0,0,1-6.38,11.74c-5.95,3.77-12.52,6.07-19.22,8.06a75.48,75.48,0,0,1-9.75,2.19,31.2,31.2,0,0,1-7.16.5,21.18,21.18,0,0,1-5.17-1,6.69,6.69,0,0,1-1.12-.52,1.15,1.15,0,0,1-.55-1.15c0-.47.39-.64.75-.74a7.79,7.79,0,0,1,2.88-.35,52.78,52.78,0,0,0,9.32.34,22.43,22.43,0,0,0,8.77-2.6,61,61,0,0,0,11.16-7.14c2.41-1.91,4.7-4,7-6,1.89-1.71,3.62-3.59,5.57-5.24a4.84,4.84,0,0,0,.69-.74,2.66,2.66,0,0,1,.75-.67,1.51,1.51,0,0,1,2.45,1.18C242.81,160.51,242.76,161.23,242.76,162Z" transform="translate(-5.08 -11.7)"/><path class="cls-1" d="M399.12,252.71V232.57c0-.3,0-.61,0-.9s.21-.59.62-.59h4.51c.47,0,.7.17.67.66,0,.26,0,.52,0,.78v40.63c0,1.58.11,1.43-1.48,1.43-1.2,0-2.4,0-3.6,0-.52,0-.77-.19-.73-.72,0-.26,0-.53,0-.79Z" transform="translate(-5.08 -11.7)"/><path class="cls-1" d="M332.87,252.71V232.56c0-.26,0-.53,0-.79,0-.45.13-.7.64-.69h4.39c.41,0,.63.16.62.59,0,.26,0,.53,0,.79v40.75c0,1.51.09,1.37-1.43,1.37-1.16,0-2.33,0-3.49,0-.51,0-.78-.16-.74-.71,0-.26,0-.53,0-.79Z" transform="translate(-5.08 -11.7)"/><path class="cls-1" d="M293.88,144.62a13.1,13.1,0,0,1-1.29,4.09,41.74,41.74,0,0,1-3.82,6.48,3.16,3.16,0,0,1-.45.51,1,1,0,0,1-1.58.08,4.59,4.59,0,0,1-1.66-2.35c-.1-.4-.25-.79-.32-1.19-.37-2.2-2-3.22-4.18-3.34a18.13,18.13,0,0,0-3,.1c-3.75.43-7.34,0-10.52-2.27a5.86,5.86,0,0,1-2.53-6.27,7.78,7.78,0,0,1,1.26-3.34c1.22-1.65,3-1.66,4.34-.07a11.93,11.93,0,0,1,1.67,3.3,14.08,14.08,0,0,0,1.33,2.59,4.9,4.9,0,0,0,4.84,2.19,11.34,11.34,0,0,0,3.62-1.14,60.23,60.23,0,0,1,5.69-2.41,14.68,14.68,0,0,1,2.61-.66C292.31,140.55,293.91,141.87,293.88,144.62Z" transform="translate(-5.08 -11.7)"/><path class="cls-1" d="M67.48,237.09a6.65,6.65,0,0,1,.25-2.22,2.14,2.14,0,0,1,3.1-1.43,11.6,11.6,0,0,1,2,1.18A13.21,13.21,0,0,0,79.34,237c2.34.25,4.69.42,7,.62,1.35.12,1.74.43,2.07,1.77a44.43,44.43,0,0,0,2.16,6.74A24.24,24.24,0,0,0,93,250.44a6.21,6.21,0,0,1,1.06,5.22,2.9,2.9,0,0,1-1.19,1.83,14.52,14.52,0,0,1-4.38,1.73c-1.18.34-2.4.57-3.6.85a2.1,2.1,0,0,1-.56.07c-.27,0-.66.17-.77-.22s.21-.48.42-.6a3.75,3.75,0,0,0,1.76-2.87c.23-1.06.47-2.12.61-3.19a7.26,7.26,0,0,0-.62-3.95,20,20,0,0,0-5.4-7,14,14,0,0,0-7-2.91c-.31,0-.82,0-.78-.39s.55-.25.84-.21a32.94,32.94,0,0,1,6.4,1.67,10.31,10.31,0,0,1,5.62,5.07,19.22,19.22,0,0,1,2.11,6,5.39,5.39,0,0,0,.28,1c.06.18.17.35.39.35s.33-.17.38-.35a4.56,4.56,0,0,0,.18-2.32,33.3,33.3,0,0,1-1-4.27,25,25,0,0,0-.9-3.82,4.1,4.1,0,0,0-3.61-3.19,72.93,72.93,0,0,1-8.63-2c-1.29-.39-2.58-.81-3.87-1.18a1.19,1.19,0,0,0-1.71.92,3.7,3.7,0,0,0,.08,2.52c.08.21.2.41.28.62s.14.46-.08.61-.42,0-.62-.08a2.11,2.11,0,0,1-1.06-1.26A6.46,6.46,0,0,1,67.48,237.09Z" transform="translate(-5.08 -11.7)"/><path class="cls-1" d="M75,260.26a9.22,9.22,0,0,1-1.76,4.5,3.89,3.89,0,0,1-4.48,1.47c-.14-.06-.3-.08-.34-.25s.08-.36.26-.44a11.33,11.33,0,0,1,1.13-.49,3.89,3.89,0,0,0,2.6-3.83c.14-2,.31-4,.38-6.05a5.85,5.85,0,0,0-.31-2.1c-.11-.32-.24-.63-.33-1-.18-.59-.54-1.22,0-1.78a2.52,2.52,0,0,1,2.15.2A3.21,3.21,0,0,1,75.58,253a4.64,4.64,0,0,0,.08,1.44,3.12,3.12,0,0,0,2.58-3.89,7,7,0,0,0-.24-.87c-.72-2.31-2.17-3.16-4.92-2.64a6,6,0,0,0-3,1.68,35.19,35.19,0,0,0-3.2,3.48,2.1,2.1,0,0,1-.36.42c-.2.13-.35.05-.38-.2a1.25,1.25,0,0,1,.32-.94,23,23,0,0,1,4.86-5.12,8.37,8.37,0,0,1,6.7-1.54,4.38,4.38,0,0,1,3.33,5.39,6.6,6.6,0,0,1-4.4,5,4.79,4.79,0,0,1-.64.21c-.49.11-.6.41-.43.84a16.75,16.75,0,0,0,2.72,5,21.15,21.15,0,0,0,4.66,3.87c.86.52.86,1.2,0,1.79a3.49,3.49,0,0,1-4.21,0A10.07,10.07,0,0,1,75.37,261,.92.92,0,0,0,75,260.26Z" transform="translate(-5.08 -11.7)"/><path class="cls-1" d="M63.45,270.3a5.75,5.75,0,0,1-4-1.66,12.22,12.22,0,0,1-3.17-5.11A19.5,19.5,0,0,1,54.67,256a1.38,1.38,0,0,0,0-.45c-.08-.34-.24-.67-.61-.73s-.62.21-.8.51a7.27,7.27,0,0,0-.67,2c-.65,2.46-1,5,.07,7.38a11.35,11.35,0,0,0,8.9,6.93c1.82.31,3.67,0,5.49.4a3.64,3.64,0,0,1,1.36.49.66.66,0,0,1,.22.8c-.07.26-.31.3-.54.31-3.67,0-7.35.34-10.83-1.33a18.75,18.75,0,0,1-6.38-4.88,5.11,5.11,0,0,1-1.06-4.12c.31-2.26.54-4.53.8-6.8a10.73,10.73,0,0,1,.93-3.68,2.64,2.64,0,0,1,3.33-1.53c.73.18,1.44.41,2.16.64a1.07,1.07,0,0,1,.83,1.17,25.44,25.44,0,0,1-.19,3.14,16,16,0,0,0,1.92,10.83,4.82,4.82,0,0,0,2.1,2A5.63,5.63,0,0,1,63.45,270.3Z" transform="translate(-5.08 -11.7)"/><path class="cls-1" d="M81.94,271a2.8,2.8,0,0,1-.74.83,9,9,0,0,0-.88.87c-.2.21-.44.47-.32.79s.46.35.76.37a3,3,0,0,0,3-1.17A31.23,31.23,0,0,1,85.94,270a15.25,15.25,0,0,1,2.66-2.41c1.87-1.36,2-3.09.43-4.74a2.41,2.41,0,0,1-.85-1.54c0-.6.14-.82.69-.7,1.77.36,3.6,2.1,3.38,4.16a3,3,0,0,1-1.12,1.88,17.12,17.12,0,0,0-4,5,12.66,12.66,0,0,1-2.85,3.59,3.94,3.94,0,0,1-2.52,1.12,25.38,25.38,0,0,1-5.71-.2,8.71,8.71,0,0,1-1.81-.59,2.91,2.91,0,0,1-1.46-1.35c-.24-.49-.12-.69.41-.74a1.7,1.7,0,0,1,.45,0,10.53,10.53,0,0,0,6.49-1.78c.52-.3,1-.63,1.53-.94C81.92,270.68,82,270.78,81.94,271Z" transform="translate(-5.08 -11.7)"/><path class="cls-1" d="M59.45,248.35a1.84,1.84,0,0,1-.91-1.73c-.16-2,.08-3.9,1.62-5.4.29-.28.72-.57.44-1s-.85-.33-1.31-.15a6.06,6.06,0,0,0-3.14,2.78,3.41,3.41,0,0,0,.24,3.63,16.79,16.79,0,0,0,2.29,2.76,4.72,4.72,0,0,1,1.16,1.64c.09.28.24.59,0,.85s-.56.07-.82-.07a10.25,10.25,0,0,1-4.07-3.79,9.69,9.69,0,0,1-1.54-4.53,2.78,2.78,0,0,1,1.78-3.05c2.69-1,5.34-2.18,8-3.25.41-.17.93-.56,1.3.05s-.07.93-.38,1.31a16.61,16.61,0,0,1-2.42,2.17A5.21,5.21,0,0,0,60,243a11,11,0,0,0-.45,4A2.5,2.5,0,0,1,59.45,248.35Z" transform="translate(-5.08 -11.7)"/><path class="cls-1" d="M67.84,256.55c-1.09-.28-2.06-.51-3-.78a4.12,4.12,0,0,0-1.67-.11A2.67,2.67,0,0,0,61,259.74a2.41,2.41,0,0,0,2.12,1c.31,0,.46-.2.25-.53a8.62,8.62,0,0,1-.44-.78,1.33,1.33,0,0,1,.1-1.48c.23-.34.51-.73,1-.67s.45.52.54.88a8.75,8.75,0,0,0,2.2,3.61c.52.59,1.1,1.13,1.65,1.69.17.18.47.32.28.64a.62.62,0,0,1-.79.26,4.19,4.19,0,0,1-1.39-.72l-1-.77c.23,1.1.63,2,.76,3a4.21,4.21,0,0,1-.53,2.7,2.12,2.12,0,0,1-2.1,1.05c-.55,0-.69-.3-.49-.83s.48-1.26.73-1.89a8.88,8.88,0,0,0,.21-5.08c-.12-.57-.52-.6-1-.46a3.91,3.91,0,0,1-2.32-.11,3.54,3.54,0,0,1-1.72-1,2.82,2.82,0,0,1,1-4.7,7.47,7.47,0,0,1,3.09-.48,10.43,10.43,0,0,1,3.83.77C67.3,255.94,67.65,256,67.84,256.55Z" transform="translate(-5.08 -11.7)"/><path class="cls-1" d="M63.71,254.15a3.41,3.41,0,0,1-.2-.68,12.07,12.07,0,0,1,2.54-9.81,4.15,4.15,0,0,0,.43-.51c1.58-2.49,5.59-2.27,7.23-.84a2.53,2.53,0,0,1,.35.28c.25.32.58.66.36,1.1s-.58.43-1,.47l-1.79.18a7.86,7.86,0,0,0-7.11,7.42c0,.61-.2,1.18-.26,1.78A.68.68,0,0,1,63.71,254.15Z" transform="translate(-5.08 -11.7)"/><path class="cls-1" d="M70.91,271.45a5,5,0,0,1,1.67-.75,5,5,0,0,0,3.48-2.25,1,1,0,0,1,1.07-.43A20,20,0,0,1,81,269.28c.33.12.23.42.05.65a4.17,4.17,0,0,1-1.78,1.32,12.65,12.65,0,0,1-6.72.72A2.46,2.46,0,0,1,70.91,271.45Z" transform="translate(-5.08 -11.7)"/><path class="cls-6" d="M68.68,257.38c-.05-.21-.1-.31-.07-.35.32-.53.2-.83-.36-1.14a1.25,1.25,0,0,1-.52-1.9.79.79,0,0,1,1.49,0,5.52,5.52,0,0,1,.33.83.39.39,0,0,0,.42.29.44.44,0,0,0,.35-.26,2.3,2.3,0,0,0-.16-1.83.77.77,0,0,0-.8-.28c-.21,0-.4.25-.64.07.45-1.1,1.17-1.32,2-.6a2,2,0,0,1,.65,2.41,7.94,7.94,0,0,1-.62,1.38,3,3,0,0,1,1.42,3.57,2.53,2.53,0,0,1-1.92,2,2.63,2.63,0,0,1-2.45-.79c-.75-.69-.61-1.62.3-2.38.41.2.22.58.25.89.07.63.22,1.25.87,1.44a1.71,1.71,0,0,0,1.73-.57,2.42,2.42,0,0,0,.1-3.1c-.48-.56-.7-.61-1.35-.26-.16.09-.31.22-.47.31S68.91,257.27,68.68,257.38Z" transform="translate(-5.08 -11.7)"/><path class="cls-7" d="M60.7,249.33a18.26,18.26,0,0,1,1-6,3.09,3.09,0,0,1,3.08-2.18c.64,0,.77.22.41.74-.73,1.05-1.5,2.07-2.18,3.14a14.62,14.62,0,0,0-1.54,3.73,5.2,5.2,0,0,0,.24,2.44c.07.4.22.79.31,1.19.06.24,0,.48-.23.56s-.32-.13-.42-.3a5.4,5.4,0,0,1-.67-2.92C60.71,249.63,60.7,249.48,60.7,249.33Z" transform="translate(-5.08 -11.7)"/><path class="cls-7" d="M295.36,159.55a2.58,2.58,0,0,1-.43,1,23.84,23.84,0,0,1-3,3.51,10.68,10.68,0,0,0-1.17,1.35,4,4,0,0,1-1.06,1.15c-.19.14-.44.4-.69.18s-.12-.51,0-.75a4.45,4.45,0,0,1,.56-1,8.85,8.85,0,0,0,1.63-2.9,7.8,7.8,0,0,1,1.75-2.72,1.83,1.83,0,0,1,1.6-.68A.87.87,0,0,1,295.36,159.55Z" transform="translate(-5.08 -11.7)"/><path class="cls-8" d="M288.9,167.35a.71.71,0,0,1-.25.64,3.94,3.94,0,0,0-1,1.49.88.88,0,0,1-.19.27c-1.88,1.78-3.37,3.89-5.15,5.76-1,1-2.05,1.94-2.93,3.05a.75.75,0,0,1-.26.21.47.47,0,0,1-.61-.11.38.38,0,0,1,0-.51,4.26,4.26,0,0,1,.48-.62c2.54-2.55,4.92-5.24,7.23-8,.12-.14.24-.34.39-.39a1.35,1.35,0,0,0,.91-1.14,1.25,1.25,0,0,1,1-.83C288.68,167.11,288.85,167.15,288.9,167.35Z" transform="translate(-5.08 -11.7)"/><path class="cls-7" d="M78.76,258.89a6,6,0,0,1,1.86-1.55c2.38-1.5,2.81-3.71,2.5-6.25l-.21-1.55c0-.16,0-.3.13-.39a.36.36,0,0,1,.42.07,5.31,5.31,0,0,1,1.66,2.09,1.11,1.11,0,0,1,.07.65,9.07,9.07,0,0,1-5.84,7A.92.92,0,0,1,79,259C79,259,78.89,258.94,78.76,258.89Z" transform="translate(-5.08 -11.7)"/><path class="cls-8" d="M67.2,269.62c1.56.29,2.89-.53,4.19-1.36a18.83,18.83,0,0,0,3.17-2.68,7.27,7.27,0,0,1,.57-.54c.39-.28.63-.18.71.27a2.76,2.76,0,0,1-1.29,2.78,17.89,17.89,0,0,1-6.19,2.23,5.44,5.44,0,0,1-2.66-.07c-.19-.05-.38-.16-.37-.36s.23-.27.42-.27Z" transform="translate(-5.08 -11.7)"/><path class="cls-6" d="M83.21,262.85a3.28,3.28,0,0,1-1.93-.44,1.44,1.44,0,0,1-.46-2.13c.31-.42.69-.45,1,0a8.44,8.44,0,0,1,.46.9c.45.81.88,1,1.76.61.52-.2,1-.44,1.55-.63a1,1,0,0,1,1.06.09c.35.33.23.75.11,1.15a5.53,5.53,0,0,1-.71,1.39c-.4.66-.73.7-1,0C84.74,262.82,84.06,262.73,83.21,262.85Z" transform="translate(-5.08 -11.7)"/><path class="cls-9" d="M86.39,266.22a10.27,10.27,0,0,1-2.67,2.71L86.16,266C86.3,266,86.32,266.13,86.39,266.22Z" transform="translate(-5.08 -11.7)"/><path class="cls-10" d="M86.39,266.22l-.23-.24c.15-.51.31-1,1.07-1.05C87.19,265.57,86.63,265.8,86.39,266.22Z" transform="translate(-5.08 -11.7)"/><path class="cls-11" d="M81.94,271l-.26-.26L83,269.6l.16.15A5.43,5.43,0,0,1,81.94,271Z" transform="translate(-5.08 -11.7)"/><path class="cls-2" d="M19.56,251.83H12c-.88,0-.9,0-.9-.88q0-6.64,0-13.29c0-.91,0-.93,1-.93,5,0,10,0,15,0a11.73,11.73,0,0,1,3.33.5A6.11,6.11,0,0,1,35,242.87a10.3,10.3,0,0,1-.25,4,5.55,5.55,0,0,1-3.19,3.83,11.7,11.7,0,0,1-4.68,1.09c-2.44,0-4.88,0-7.32,0Z" transform="translate(-5.08 -11.7)"/></svg>